# xmcd
#
# Track frame offsets:
#	150
#	13998
#	26447
#	39545
#	53805
#	64397
#	79538
#	92360
#	103501
#	117553
#	127432
#	137624
#	152074
#	169825
#	181342
#	192923
#	204589
#	219607
#	231543
#	247499
#
# Disc length: 3500 seconds
#
# Revision: 2
# Processed by: cddbd v1.5.2PL0 Copyright (c) Steve Scherf et al.
# Submitted via: audiograbber 1.83.01
#
DISCID=2b0daa14
DTITLE=Glen Campbell - Love Songs
DYEAR=2000
DGENRE=Country
TTITLE0=Honey Come Back
TTITLE1=By The Time I Get To Phoenix
TTITLE2=Country Girl
TTITLE3=Gentle On My Mind
TTITLE4=Reason To Believe
TTITLE5=One Last Time
TTITLE6=(I'm Getting Used) To The Crying
TTITLE7=It's Only Make Believe
TTITLE8=How High Did We Go
TTITLE9=If This Is Love
TTITLE10=Love Is Not A Game
TTITLE11=For My Woman's Love
TTITLE12=The Last Thing On My Mind
TTITLE13=Everything A Man Could Ever Need
TTITLE14=Dream Baby (How Long Must I Dream)
TTITLE15=Hey Littlt One
TTITLE16=Your Cheatin' Heart
TTITLE17=This Is Sarah's Song
TTITLE18=Let Go
TTITLE19=God Only Knows
EXTD=
EXTT0=
EXTT1=
EXTT2=
EXTT3=
EXTT4=
EXTT5=
EXTT6=
EXTT7=
EXTT8=
EXTT9=
EXTT10=
EXTT11=
EXTT12=
EXTT13=
EXTT14=
EXTT15=
EXTT16=
EXTT17=
EXTT18=
EXTT19=
PLAYORDER=
